<!--?xml version="1.0" standalone="no"?-->

<svg version="1.0" xmlns="http://www.w3.org/2000/svg" width="100%" height="100%" viewBox="0 0 1456.000000 1158.000000" preserveAspectRatio="xMidYMid meet">
  <g transform="translate(0.000000,1158.000000) scale(0.100000,-0.100000)" fill="#000000" stroke="none">
    <path d="M7225 10388 c-89 -32 -182 -120 -300 -284 -245 -340 -297 -399 -396
-450 -48 -24 -64 -27 -142 -26 -101 1 -190 23 -457 112 -166 56 -308 90 -371
90 -15 0 -52 -5 -81 -11 -44 -9 -62 -20 -105 -64 -86 -88 -102 -174 -103 -550
0 -540 -39 -592 -546 -745 -404 -122 -527 -215 -512 -388 10 -103 59 -192 248
-447 157 -214 211 -310 229 -411 25 -138 -22 -239 -268 -569 -233 -314 -267
-462 -132 -588 71 -66 145 -100 441 -197 290 -96 361 -128 433 -198 88 -86
107 -181 107 -544 1 -360 17 -458 90 -540 51 -59 105 -81 195 -80 99 0 158 14
415 97 124 40 263 81 310 90 224 45 324 -17 560 -350 145 -205 219 -294 283
-343 74 -55 135 -76 201 -69 133 14 209 88 491 482 92 129 187 226 254 260
111 56 227 43 536 -60 236 -79 289 -93 387 -105 133 -16 223 19 274 106 53 90
56 115 64 474 8 353 15 420 57 507 50 107 169 174 483 272 107 33 228 74 267
90 197 81 282 188 254 321 -22 108 -79 203 -312 520 -39 52 -91 137 -117 189
-46 92 -47 97 -47 186 0 89 2 96 43 176 23 46 85 143 137 214 176 243 205 284
239 347 38 70 66 156 66 203 0 46 -46 130 -93 171 -55 47 -174 103 -317 149
-63 20 -164 53 -225 72 -218 70 -343 149 -382 241 -40 94 -45 140 -49 457 -2
171 -9 339 -14 375 -14 82 -51 160 -95 199 -37 32 -118 61 -169 61 -71 0 -214
-34 -382 -90 -252 -85 -358 -111 -457 -112 -163 -3 -240 59 -466 377 -161 226
-249 323 -334 365 -65 32 -134 39 -192 18z m209 -1149 c26 -10 50 -20 53 -22
2 -3 -19 -19 -46 -35 l-50 -31 -3 -62 -3 -61 -47 41 -47 42 -52 -15 c-29 -9
-56 -16 -60 -16 -4 0 3 25 17 56 27 61 29 50 -23 130 l-16 25 61 -2 c57 -2 62
-1 89 31 15 18 32 40 37 49 8 12 14 1 26 -48 15 -62 16 -63 64 -82z m-774 -76
c171 -185 293 -422 350 -678 25 -115 25 -111 -10 -132 -35 -20 -47 -48 -30
-68 18 -22 34 -19 87 15 116 74 276 90 414 40 36 -13 72 -21 81 -18 9 4 18 25
22 50 10 61 53 232 77 303 57 168 176 361 308 498 100 104 102 103 94 -48 -16
-297 -131 -595 -319 -825 -35 -44 -64 -86 -64 -95 0 -9 11 -35 24 -58 22 -37
92 -256 84 -261 -2 -1 -42 -14 -90 -29 -96 -31 -87 -21 -111 -126 -8 -31 8
-61 32 -61 25 0 41 21 48 64 5 34 9 37 70 56 36 11 69 18 73 15 5 -3 11 -24
15 -46 6 -32 20 -54 65 -99 31 -32 67 -80 79 -106 85 -181 9 -387 -173 -470
-49 -22 -78 -28 -160 -32 -86 -3 -107 -8 -139 -29 -58 -37 -113 -53 -181 -53
-77 0 -119 12 -179 50 -42 26 -57 30 -120 30 -194 0 -336 95 -383 258 -35 120
8 268 102 351 43 38 73 91 74 134 0 22 11 21 85 -6 56 -21 60 -24 66 -60 8
-49 21 -61 55 -53 26 7 26 9 21 57 -10 87 -22 100 -112 127 -44 13 -82 26 -84
28 -9 8 52 203 80 253 16 30 29 61 29 68 0 8 -25 43 -56 80 -197 232 -315 535
-331 852 -6 122 -6 123 14 112 12 -6 53 -46 93 -88z m-530 -754 l55 -81 93 5
c50 3 92 3 92 -1 0 -3 -25 -38 -56 -79 l-56 -73 30 -90 c17 -49 28 -90 24 -90
-4 0 -45 13 -92 29 l-85 29 -60 -44 c-103 -76 -95 -78 -95 30 l0 95 -74 53
c-41 29 -75 55 -75 58 -1 3 38 16 87 30 l87 25 30 92 c17 51 32 93 35 93 3 0
30 -37 60 -81z m2261 -675 c21 -4 39 -8 39 -11 0 -2 -11 -16 -25 -31 -25 -27
-26 -36 -8 -96 4 -15 2 -18 -13 -11 -71 29 -70 29 -109 6 l-38 -22 7 42 c6 38
4 45 -25 75 l-32 33 41 7 c37 6 43 11 59 50 l18 44 24 -40 c19 -33 30 -41 62
-46z m-106 -439 c509 -166 658 -436 363 -660 -446 -338 -1639 -421 -2364 -165
-310 109 -474 251 -474 409 0 71 26 124 93 190 65 64 103 89 214 145 126 63
138 65 176 28 62 -59 187 -125 332 -176 16 -6 11 -12 -35 -37 -81 -43 -130
-99 -130 -146 0 -123 183 -218 520 -269 158 -25 492 -25 645 0 234 37 389 92
471 168 98 90 54 188 -118 265 l-57 26 45 55 c53 65 90 133 99 186 l7 37 42
-7 c22 -3 100 -26 171 -49z m-1435 -1186 c221 -29 664 -32 875 -5 130 16 390
62 406 71 11 7 18 -97 29 -400 5 -154 12 -318 16 -365 6 -85 6 -85 -23 -106
-94 -69 -277 -127 -493 -154 -143 -19 -454 -24 -616 -11 -241 20 -410 58 -534
121 -99 50 -94 25 -74 358 l18 290 30 -10 c165 -48 535 -98 738 -98 74 0 100
4 112 16 21 20 20 43 -1 66 -14 15 -32 18 -132 18 -186 0 -532 46 -691 93 -52
15 -56 25 -45 122 l6 61 107 -22 c59 -13 181 -33 272 -45z" class="svg-elem-1"></path>
    <path d="M7123 7394 c-10 -27 10 -47 73 -74 70 -29 75 -35 72 -80 -3 -33 -6
-35 -43 -40 -43 -5 -57 -28 -35 -55 19 -22 212 -21 231 1 19 23 -1 48 -42 54
-33 5 -34 7 -34 49 l0 45 64 26 c72 29 92 50 72 74 -19 22 -41 20 -114 -10
l-63 -26 -65 26 c-76 30 -107 33 -116 10z" class="svg-elem-2"></path>
    <path d="M5825 3359 c-217 -25 -394 -179 -450 -390 -17 -63 -19 -194 -4 -259
32 -142 147 -284 283 -350 123 -61 229 -74 355 -45 102 24 186 70 255 138 107
106 146 201 146 354 l0 93 -282 -2 -283 -3 -3 -117 -3 -118 133 0 132 0 -29
-30 c-69 -72 -194 -95 -290 -52 -176 80 -229 290 -109 431 56 64 113 93 198
99 85 5 139 -14 203 -72 l40 -36 97 76 c110 86 110 83 24 159 -109 96 -262
142 -413 124z" class="svg-elem-3"></path>
    <path d="M7380 3359 c-138 -15 -271 -90 -357 -203 -163 -216 -144 -507 46
-695 211 -210 536 -213 746 -7 64 63 103 122 88 136 -4 5 -52 31 -106 60 l-97
52 -48 -50 c-60 -65 -127 -96 -207 -95 -178 0 -311 165 -271 336 38 162 198
251 364 202 39 -12 66 -30 106 -70 l54 -53 106 55 c58 31 106 59 106 64 0 4
-21 36 -47 70 -109 143 -290 217 -483 198z" class="svg-elem-4"></path>
    <path d="M3358 3352 l-108 -3 0 -514 0 -515 125 0 125 0 2 282 3 283 115 -195
c113 -190 117 -195 150 -198 l35 -2 110 186 c60 102 113 188 117 190 5 3 8
-119 8 -270 l0 -276 125 0 125 0 0 514 0 515 -125 3 -125 3 -134 -224 -135
-224 -28 45 c-15 24 -75 124 -133 220 -73 124 -111 178 -125 180 -11 2 -68 2
-127 0z" class="svg-elem-5"></path>
    <path d="M4775 3352 c-29 -3 -32 -8 -67 -105 -20 -56 -102 -282 -182 -501 -80
-219 -146 -405 -146 -413 0 -11 25 -13 131 -11 l132 3 32 85 32 85 178 0 178
0 31 -85 32 -85 132 -3 c103 -2 132 0 132 10 0 8 -36 112 -81 233 -44 121
-121 330 -171 465 -49 135 -95 259 -100 275 -6 17 -13 33 -17 37 -6 7 -197 15
-246 10z m158 -500 c21 -57 37 -105 37 -108 0 -2 -38 -4 -85 -4 -47 0 -85 3
-85 8 0 4 16 50 35 102 20 52 38 101 40 109 9 23 19 3 58 -107z" class="svg-elem-6"></path>
    <path d="M6578 3353 l-28 -4 0 -515 0 -514 125 0 125 0 0 515 0 515 -84 0
c-46 0 -90 2 -98 3 -7 2 -25 2 -40 0z" class="svg-elem-7"></path>
    <path d="M8340 3352 l-66 -3 -73 -202 c-41 -111 -125 -341 -188 -511 -62 -170
-113 -311 -113 -313 0 -2 61 -2 136 -1 l137 3 31 88 31 87 176 0 177 0 34 -87
34 -88 132 -3 c88 -2 132 1 132 8 0 8 -252 702 -350 962 l-21 56 -72 4 c-40 2
-101 2 -137 0z m125 -508 c19 -54 35 -100 35 -101 0 -2 -38 -3 -85 -3 -47 0
-85 4 -85 9 0 8 34 104 70 196 14 37 17 33 65 -101z" class="svg-elem-8"></path>
    <path d="M10163 3353 l-33 -4 0 -142 c-2 -542 0 -617 22 -675 24 -64 100 -147
164 -180 226 -115 522 -25 605 185 22 56 23 70 27 436 l4 377 -131 0 -131 0 0
-361 0 -361 -28 -28 c-28 -27 -85 -50 -127 -50 -43 0 -100 23 -127 52 l-28 30
0 359 0 359 -79 0 c-44 0 -85 2 -93 3 -7 2 -28 2 -45 0z" class="svg-elem-9"></path>
    <path d="M8992 2838 l3 -513 325 0 325 0 0 115 0 115 -197 3 -198 2 0 395 0
395 -130 0 -130 0 2 -512z" class="svg-elem-10"></path>
    <path d="M11102 2838 l3 -513 128 -3 127 -3 0 516 0 515 -130 0 -130 0 2 -512z" class="svg-elem-11"></path>
    <path d="M7264 2268 c-40 -10 -99 -76 -131 -144 -32 -70 -73 -235 -73 -295 l0
-48 -53 -15 c-100 -29 -184 -130 -195 -235 -5 -53 -25 -81 -57 -81 -40 0 -44
42 -18 196 16 96 16 103 0 128 -13 20 -26 26 -51 26 -41 0 -67 -27 -117 -124
-19 -36 -38 -66 -43 -66 -4 0 -6 6 -3 13 14 37 19 148 7 162 -17 21 -64 19
-84 -4 -16 -18 -45 -145 -46 -203 0 -21 -11 -36 -42 -59 -91 -67 -174 -93
-219 -69 -29 16 -23 25 36 54 30 15 70 46 90 68 87 102 41 228 -84 228 -97 0
-170 -79 -193 -210 -9 -55 -13 -61 -57 -89 -76 -49 -116 -63 -148 -50 -15 5
-31 16 -35 22 -4 7 -8 58 -8 115 0 94 2 106 26 142 l27 40 103 0 c93 0 104 2
114 20 8 14 8 26 0 40 -9 17 -21 20 -80 20 -39 0 -70 2 -70 5 0 3 13 32 30 64
44 88 55 141 40 198 -15 62 -44 93 -86 93 -67 0 -132 -95 -176 -257 l-23 -83
-50 0 c-74 0 -95 -8 -95 -35 0 -26 10 -30 80 -40 l46 -7 -1 -135 0 -135 -30
-24 c-16 -14 -42 -31 -56 -39 -55 -29 -65 24 -39 193 17 115 10 146 -38 150
-49 5 -72 -16 -120 -107 -24 -44 -45 -81 -47 -81 -1 0 -2 42 -1 93 l1 92 -37
3 c-42 4 -62 -18 -73 -80 l-7 -37 -47 38 c-67 56 -107 73 -183 79 -86 6 -143
-15 -192 -69 -20 -22 -42 -59 -48 -85 -14 -51 -38 -70 -67 -55 -25 14 -30 45
-18 119 12 72 2 92 -48 92 -37 0 -68 -25 -105 -85 l-25 -40 -3 63 -3 63 -37
-3 c-36 -3 -38 -5 -56 -65 -18 -56 -24 -63 -64 -84 -43 -21 -151 -33 -167 -18
-3 4 17 41 44 82 111 165 191 365 177 441 -11 59 -45 86 -106 86 -45 0 -55 -4
-93 -40 -94 -86 -163 -299 -203 -632 -23 -184 -24 -348 -2 -419 25 -78 56
-109 110 -109 24 0 53 7 66 15 58 41 110 201 97 299 -3 27 -17 75 -31 107 -13
32 -24 60 -24 62 0 2 24 7 53 11 28 3 64 9 78 12 l26 6 -5 -76 c-6 -90 8 -133
46 -143 36 -9 51 14 106 166 26 72 51 129 56 126 4 -2 10 -23 14 -45 4 -23 18
-54 35 -72 27 -30 35 -33 84 -33 l54 1 24 -50 c33 -68 67 -91 134 -91 106 0
186 94 193 227 3 37 -1 81 -6 98 -15 41 -3 39 63 -11 l55 -41 -3 -118 c-2
-104 0 -120 17 -139 23 -26 57 -27 78 -3 9 9 43 72 77 140 34 67 63 122 64
122 2 0 1 -39 -1 -87 -5 -108 9 -169 43 -185 33 -15 93 3 163 49 l52 35 39
-43 c36 -41 42 -44 88 -43 39 0 68 10 138 48 80 42 90 45 98 29 19 -33 60 -63
101 -74 57 -15 120 -5 196 34 36 17 68 33 72 35 3 2 9 -11 13 -28 8 -35 37
-54 71 -46 19 5 39 36 94 144 l71 137 -6 -76 c-6 -88 8 -170 35 -194 23 -21
76 -14 132 18 l38 21 23 -22 c47 -45 120 -38 204 20 l43 29 30 -35 c17 -18 42
-37 56 -40 35 -9 109 17 166 59 45 33 46 35 41 77 -8 71 -8 71 -69 28 -141
-99 -163 -17 -60 221 77 179 107 279 113 379 9 135 -29 191 -113 168z m23
-197 c-5 -75 -57 -255 -91 -319 -15 -26 -15 -26 -16 33 0 75 25 245 46 307 15
47 39 72 58 61 5 -3 6 -40 3 -82z m-3046 35 c9 -18 6 -34 -12 -77 -30 -72
-140 -271 -146 -266 -13 14 50 254 85 322 25 51 56 60 73 21z m1615 -30 c8
-33 -72 -216 -95 -216 -18 0 -18 15 1 87 33 130 78 192 94 129z m-927 -383
c30 -25 37 -96 18 -164 -19 -64 -48 -99 -82 -99 -73 0 -77 180 -5 252 33 33
41 34 69 11z m1284 -5 c6 -8 7 -27 3 -41 -7 -29 -69 -77 -99 -77 -17 0 -18 5
-12 38 8 47 30 80 58 92 27 11 38 8 50 -12z m847 -79 c0 -44 -5 -90 -11 -102
-20 -38 -52 -67 -74 -67 -72 0 -55 130 28 218 49 51 57 44 57 -49z m-2991
-106 c38 -143 42 -307 8 -340 -17 -17 -19 -17 -33 1 -24 33 -18 376 7 376 4 0
13 -17 18 -37z" class="svg-elem-12"></path>
    <path d="M8754 2268 c-45 -11 -108 -81 -153 -167 -43 -83 -97 -246 -107 -323
-4 -27 -10 -50 -13 -53 -4 -2 -26 10 -50 26 -54 36 -100 49 -171 49 -131 -1
-213 -85 -227 -234 -5 -61 -6 -62 -47 -82 l-42 -19 -18 97 -19 97 32 42 c47
65 38 99 -27 99 -50 0 -62 -10 -146 -119 -42 -55 -102 -122 -132 -148 -47 -41
-54 -52 -52 -78 2 -24 8 -31 29 -33 18 -2 31 -13 42 -37 21 -45 67 -59 166
-52 52 3 103 15 159 37 l82 32 35 -31 c118 -103 282 4 293 191 2 37 -1 82 -7
99 -6 18 -10 34 -8 35 1 2 25 -14 52 -34 l50 -38 7 -78 c8 -90 43 -176 82
-201 30 -20 76 -15 143 16 52 24 47 24 77 -6 15 -15 37 -25 54 -25 30 0 104
43 136 78 l18 21 22 -42 c21 -42 21 -42 76 -42 54 1 110 21 172 61 l27 18 39
-45 c37 -41 43 -44 89 -43 38 0 67 10 127 42 43 23 79 42 82 42 2 0 4 -11 4
-23 0 -33 31 -58 79 -64 33 -5 55 1 117 31 l76 36 34 -29 c80 -71 198 -42 258
62 37 64 49 141 33 205 -18 65 -10 66 66 6 46 -36 57 -49 52 -65 -4 -11 -7
-62 -8 -113 -2 -80 1 -97 17 -115 23 -26 57 -27 78 -3 9 9 43 72 77 140 34 67
63 122 65 122 3 0 2 -40 -1 -90 -7 -102 12 -174 49 -186 31 -10 97 13 158 55
55 38 55 38 58 94 2 32 0 57 -4 57 -4 0 -24 -15 -45 -34 -21 -19 -51 -42 -67
-50 -27 -14 -31 -14 -43 0 -16 19 -14 109 5 197 21 104 7 147 -49 147 -45 0
-67 -22 -116 -113 -23 -43 -43 -76 -45 -74 -2 2 0 32 5 67 12 88 3 114 -38
118 -43 4 -57 -9 -71 -68 l-12 -49 -53 43 c-74 61 -127 79 -214 74 -58 -3 -78
-9 -113 -33 -60 -42 -99 -121 -102 -211 -3 -59 -7 -71 -30 -91 -35 -30 -75
-40 -87 -22 -12 19 -3 83 32 218 17 63 28 120 25 127 -7 17 -63 18 -95 1 -21
-10 -29 -30 -51 -118 -15 -58 -30 -112 -35 -118 -12 -21 -125 -90 -162 -100
-42 -12 -79 2 -90 33 -4 12 -6 64 -5 116 2 84 6 99 29 132 l25 37 107 3 106 3
0 35 0 35 -72 3 c-40 2 -73 5 -73 8 0 2 13 31 30 63 44 88 55 140 40 201 -28
117 -128 121 -194 7 -31 -54 -72 -161 -81 -215 l-7 -42 -51 0 c-76 0 -97 -8
-97 -35 0 -26 10 -30 80 -40 l45 -7 0 -133 c-1 -94 -5 -138 -14 -149 -7 -8
-38 -28 -68 -42 -50 -25 -55 -26 -71 -11 -15 16 -15 27 7 159 13 79 22 152 20
163 -3 15 -13 21 -44 23 -22 1 -46 -2 -53 -6 -7 -5 -25 -71 -41 -149 -32 -159
-41 -180 -77 -189 -47 -12 -50 4 -24 163 30 192 31 177 -9 181 -24 3 -40 -3
-57 -19 -28 -27 -38 -57 -58 -173 -9 -49 -17 -90 -18 -91 -29 -23 -94 -55
-113 -55 -53 0 -45 87 17 195 78 135 159 313 179 395 40 159 7 243 -87 218z
m-4 -162 c0 -42 -50 -186 -97 -281 -20 -38 -37 -72 -39 -74 -23 -25 4 142 40
248 24 70 67 141 87 141 5 0 9 -15 9 -34z m740 -21 c15 -18 2 -60 -47 -157
-31 -64 -45 -79 -56 -60 -7 11 31 150 54 193 21 42 30 47 49 24z m-1230 -385
c33 -18 45 -80 30 -151 -29 -135 -122 -162 -146 -42 -9 44 22 140 56 174 32
32 34 33 60 19z m1870 -36 c14 -36 12 -83 -5 -140 -47 -160 -172 -100 -129 62
8 30 21 66 31 80 32 50 84 49 103 -2z m-2306 -125 c10 -52 7 -75 -15 -103 -26
-32 -50 -33 -86 -2 l-28 25 55 55 c30 31 57 56 61 56 4 0 9 -14 13 -31z" class="svg-elem-13"></path>
    <path d="M9745 1995 c-31 -30 -33 -77 -5 -105 30 -30 103 -28 135 5 31 30 33
77 5 105 -30 30 -103 28 -135 -5z" class="svg-elem-14"></path>
  </g>
</svg>
