<?xml version="1.0" encoding="UTF-8"?>
<svg xmlns="http://www.w3.org/2000/svg" xmlns:xlink="http://www.w3.org/1999/xlink" width="64px" height="64px" viewBox="0 0 64 64" version="1.1">
    <g id="surface1">
        <path style=" stroke:none;fill-rule:nonzero;fill:rgb(0%,0%,0%);fill-opacity:1;" d="M 29.902344 0.015625 C 29.765625 0.03125 29.328125 0.0742188 28.933594 0.105469 C 19.84375 0.925781 11.328125 5.828125 5.9375 13.367188 C 2.933594 17.558594 1.011719 22.3125 0.289062 27.347656 C 0.03125 29.105469 0 29.621094 0 32.007812 C 0 34.390625 0.03125 34.910156 0.289062 36.667969 C 2.027344 48.683594 10.578125 58.777344 22.179688 62.519531 C 24.253906 63.1875 26.445312 63.644531 28.933594 63.921875 C 29.902344 64.027344 34.097656 64.027344 35.066406 63.921875 C 39.363281 63.445312 43.003906 62.382812 46.59375 60.546875 C 47.144531 60.265625 47.253906 60.191406 47.175781 60.128906 C 47.128906 60.09375 44.78125 56.945312 41.964844 53.140625 L 36.847656 46.230469 L 30.4375 36.742188 C 26.90625 31.523438 24.003906 27.257812 23.980469 27.257812 C 23.953125 27.253906 23.929688 31.46875 23.917969 36.617188 C 23.898438 45.628906 23.890625 45.992188 23.78125 46.207031 C 23.617188 46.511719 23.492188 46.636719 23.230469 46.773438 C 23.027344 46.875 22.851562 46.894531 21.910156 46.894531 L 20.828125 46.894531 L 20.539062 46.710938 C 20.359375 46.601562 20.214844 46.441406 20.121094 46.253906 L 19.988281 45.972656 L 20 33.433594 L 20.019531 20.882812 L 20.214844 20.640625 C 20.3125 20.507812 20.527344 20.339844 20.675781 20.257812 C 20.933594 20.132812 21.03125 20.121094 22.117188 20.121094 C 23.390625 20.121094 23.605469 20.171875 23.9375 20.535156 C 24.03125 20.632812 27.5 25.863281 31.65625 32.164062 C 35.808594 38.460938 41.492188 47.0625 44.28125 51.285156 L 49.347656 58.960938 L 49.605469 58.789062 C 51.875 57.316406 54.277344 55.214844 56.179688 53.023438 C 60.226562 48.375 62.835938 42.710938 63.710938 36.667969 C 63.96875 34.910156 64 34.390625 64 32.007812 C 64 29.621094 63.96875 29.105469 63.710938 27.347656 C 61.972656 15.328125 53.421875 5.234375 41.820312 1.492188 C 39.777344 0.832031 37.597656 0.375 35.160156 0.0976562 C 34.558594 0.0351562 30.421875 -0.03125 29.902344 0.015625 Z M 43.003906 19.371094 C 43.304688 19.519531 43.546875 19.808594 43.636719 20.109375 C 43.6875 20.273438 43.699219 23.75 43.6875 31.585938 L 43.667969 42.835938 L 41.683594 39.792969 L 39.695312 36.753906 L 39.695312 28.578125 C 39.695312 23.292969 39.71875 20.320312 39.757812 20.179688 C 39.859375 19.828125 40.078125 19.550781 40.378906 19.390625 C 40.632812 19.257812 40.726562 19.246094 41.710938 19.246094 C 42.636719 19.246094 42.796875 19.257812 43.003906 19.371094 Z M 43.003906 19.371094 "/>
    </g>
</svg>
